<mxfile host="65bd71144e">
    <diagram id="sxU875qZQ9SX2hlOh8HO" name="Page-1">
        <mxGraphModel dx="1002" dy="641" grid="1" gridSize="10" guides="1" tooltips="1" connect="1" arrows="1" fold="1" page="1" pageScale="1" pageWidth="850" pageHeight="1100" math="0" shadow="0">
            <root>
                <mxCell id="0"/>
                <mxCell id="1" parent="0"/>
                <mxCell id="3" value="Node modules" style="shape=ext;double=1;rounded=1;whiteSpace=wrap;html=1;" parent="1" vertex="1">
                    <mxGeometry x="100" y="100" width="120" height="40" as="geometry"/>
                </mxCell>
                <mxCell id="4" value="src" style="shape=ext;double=1;rounded=1;whiteSpace=wrap;html=1;" parent="1" vertex="1">
                    <mxGeometry x="100" y="180" width="70" height="40" as="geometry"/>
                </mxCell>
                <mxCell id="5" value="" style="line;strokeWidth=4;html=1;perimeter=backbonePerimeter;points=[];outlineConnect=0;rotation=-15;" parent="1" vertex="1">
                    <mxGeometry x="170" y="177.5" width="90" height="10" as="geometry"/>
                </mxCell>
                <mxCell id="6" value="tests" style="shape=ext;double=1;rounded=1;whiteSpace=wrap;html=1;" parent="1" vertex="1">
                    <mxGeometry x="260" y="147.5" width="70" height="40" as="geometry"/>
                </mxCell>
                <mxCell id="7" value="" style="line;strokeWidth=4;html=1;perimeter=backbonePerimeter;points=[];outlineConnect=0;rotation=-15;" parent="1" vertex="1">
                    <mxGeometry x="332.14" y="155" width="95" height="10" as="geometry"/>
                </mxCell>
                <mxCell id="8" value="" style="line;strokeWidth=4;html=1;perimeter=backbonePerimeter;points=[];outlineConnect=0;rotation=10;" parent="1" vertex="1">
                    <mxGeometry x="331.52" y="175.95000000000002" width="95" height="10" as="geometry"/>
                </mxCell>
                <mxCell id="9" value="helpers" style="shape=ext;double=1;rounded=1;whiteSpace=wrap;html=1;" parent="1" vertex="1">
                    <mxGeometry x="425" y="125" width="80" height="40" as="geometry"/>
                </mxCell>
                <mxCell id="11" value="indexspec.ts" style="shape=ext;double=1;rounded=1;whiteSpace=wrap;html=1;strokeColor=none;fillColor=none;" parent="1" vertex="1">
                    <mxGeometry x="426.52" y="177.5" width="80" height="35" as="geometry"/>
                </mxCell>
                <mxCell id="12" value="" style="line;strokeWidth=2;html=1;sketch=0;fillColor=none;" parent="1" vertex="1">
                    <mxGeometry x="506.52" y="142.5" width="90" height="10" as="geometry"/>
                </mxCell>
                <mxCell id="13" value="reporter.ts" style="shape=ext;double=1;rounded=1;whiteSpace=wrap;html=1;strokeColor=none;fillColor=none;" parent="1" vertex="1">
                    <mxGeometry x="596.52" y="130" width="80" height="35" as="geometry"/>
                </mxCell>
                <mxCell id="14" value="" style="line;strokeWidth=4;html=1;perimeter=backbonePerimeter;points=[];outlineConnect=0;rotation=10;" parent="1" vertex="1">
                    <mxGeometry x="170" y="192.37" width="90" height="27.5" as="geometry"/>
                </mxCell>
                <mxCell id="15" value="index.ts" style="shape=ext;double=1;rounded=1;whiteSpace=wrap;html=1;strokeColor=none;fillColor=none;" parent="1" vertex="1">
                    <mxGeometry x="260" y="200" width="80" height="27.37" as="geometry"/>
                </mxCell>
                <mxCell id="17" value="package-lock.json" style="text;strokeColor=none;align=center;fillColor=none;html=1;verticalAlign=middle;whiteSpace=wrap;rounded=0;sketch=0;" parent="1" vertex="1">
                    <mxGeometry x="100" y="250" width="100" height="30" as="geometry"/>
                </mxCell>
                <mxCell id="18" value="package.json" style="text;strokeColor=none;align=center;fillColor=none;html=1;verticalAlign=middle;whiteSpace=wrap;rounded=0;sketch=0;" parent="1" vertex="1">
                    <mxGeometry x="100" y="290" width="70" height="30" as="geometry"/>
                </mxCell>
                <mxCell id="19" value="tsconfic.json" style="text;strokeColor=none;align=center;fillColor=none;html=1;verticalAlign=middle;whiteSpace=wrap;rounded=0;sketch=0;" parent="1" vertex="1">
                    <mxGeometry x="100" y="340" width="70" height="30" as="geometry"/>
                </mxCell>
                <mxCell id="21" style="edgeStyle=none;html=1;exitX=1;exitY=1;exitDx=0;exitDy=0;entryX=1;entryY=0.75;entryDx=0;entryDy=0;" parent="1" source="19" target="19" edge="1">
                    <mxGeometry relative="1" as="geometry"/>
                </mxCell>
                <mxCell id="22" value="prettierrc.json" style="text;strokeColor=none;align=center;fillColor=none;html=1;verticalAlign=middle;whiteSpace=wrap;rounded=0;" vertex="1" parent="1">
                    <mxGeometry x="100" y="370" width="75" height="30" as="geometry"/>
                </mxCell>
            </root>
        </mxGraphModel>
    </diagram>
</mxfile>